<?xml version="1.0" encoding="UTF-8" standalone="no"?>
<!DOCTYPE svg PUBLIC "-//W3C//DTD SVG 1.1//EN"
 "http://www.w3.org/Graphics/SVG/1.1/DTD/svg11.dtd">
<!-- Generated by graphviz version 2.38.0 (20140413.2041)
 -->
<!-- Title: models_diagram Pages: 1 -->
<svg width="763pt" height="652pt"
 viewBox="0.00 0.00 763.16 652.00" xmlns="http://www.w3.org/2000/svg" xmlns:xlink="http://www.w3.org/1999/xlink">
<g id="graph0" class="graph" transform="scale(1 1) rotate(0) translate(4 648)">
<title>models_diagram</title>
<polygon fill="none" stroke="none" points="-4,4 -4,-648 759.163,-648 759.163,4 -4,4"/>
<!-- _diagram_info -->
<g id="node1" class="node"><title>_diagram_info</title>
<text text-anchor="start" x="58.6626" y="-607.6" font-family="Times New Roman,serif" font-size="13.00">Models diagram</text>
<text text-anchor="start" x="58.6626" y="-593.6" font-family="Times New Roman,serif" font-size="13.00">Date: May 25 2016 &#45; 21:26</text>
<text text-anchor="start" x="58.6626" y="-579.6" font-family="Times New Roman,serif" font-size="13.00">Migration version: 20160525175634</text>
<text text-anchor="start" x="58.6626" y="-565.6" font-family="Times New Roman,serif" font-size="13.00">Generated by RailRoady 1.4.2</text>
<text text-anchor="start" x="58.6626" y="-551.6" font-family="Times New Roman,serif" font-size="13.00">http://railroady.prestonlee.com</text>
</g>
<!-- Application -->
<g id="node2" class="node"><title>Application</title>
<path fill="none" stroke="black" d="M194.163,-0.5C194.163,-0.5 302.163,-0.5 302.163,-0.5 308.163,-0.5 314.163,-6.5 314.163,-12.5 314.163,-12.5 314.163,-124.5 314.163,-124.5 314.163,-130.5 308.163,-136.5 302.163,-136.5 302.163,-136.5 194.163,-136.5 194.163,-136.5 188.163,-136.5 182.163,-130.5 182.163,-124.5 182.163,-124.5 182.163,-12.5 182.163,-12.5 182.163,-6.5 188.163,-0.5 194.163,-0.5"/>
<text text-anchor="middle" x="248.163" y="-121.3" font-family="Times New Roman,serif" font-size="14.00">Application</text>
<polyline fill="none" stroke="black" points="182.163,-113.5 314.163,-113.5 "/>
<text text-anchor="start" x="190.163" y="-98.3" font-family="Times New Roman,serif" font-size="14.00">id :INTEGER</text>
<text text-anchor="start" x="190.163" y="-83.3" font-family="Times New Roman,serif" font-size="14.00">body :text</text>
<text text-anchor="start" x="190.163" y="-68.3" font-family="Times New Roman,serif" font-size="14.00">created_at :datetime</text>
<text text-anchor="start" x="190.163" y="-53.3" font-family="Times New Roman,serif" font-size="14.00">updated_at :datetime</text>
<text text-anchor="start" x="190.163" y="-38.3" font-family="Times New Roman,serif" font-size="14.00">author_id :integer</text>
<text text-anchor="start" x="190.163" y="-23.3" font-family="Times New Roman,serif" font-size="14.00">reviewer_id :integer</text>
<text text-anchor="start" x="190.163" y="-8.3" font-family="Times New Roman,serif" font-size="14.00">topic_id :integer</text>
</g>
<!-- Category -->
<g id="node3" class="node"><title>Category</title>
<path fill="none" stroke="black" d="M521.163,-522.5C521.163,-522.5 629.163,-522.5 629.163,-522.5 635.163,-522.5 641.163,-528.5 641.163,-534.5 641.163,-534.5 641.163,-631.5 641.163,-631.5 641.163,-637.5 635.163,-643.5 629.163,-643.5 629.163,-643.5 521.163,-643.5 521.163,-643.5 515.163,-643.5 509.163,-637.5 509.163,-631.5 509.163,-631.5 509.163,-534.5 509.163,-534.5 509.163,-528.5 515.163,-522.5 521.163,-522.5"/>
<text text-anchor="middle" x="575.163" y="-628.3" font-family="Times New Roman,serif" font-size="14.00">Category</text>
<polyline fill="none" stroke="black" points="509.163,-620.5 641.163,-620.5 "/>
<text text-anchor="start" x="517.163" y="-605.3" font-family="Times New Roman,serif" font-size="14.00">id :INTEGER</text>
<text text-anchor="start" x="517.163" y="-590.3" font-family="Times New Roman,serif" font-size="14.00">name :varchar</text>
<text text-anchor="start" x="517.163" y="-575.3" font-family="Times New Roman,serif" font-size="14.00">description :text</text>
<text text-anchor="start" x="517.163" y="-560.3" font-family="Times New Roman,serif" font-size="14.00">discount :integer</text>
<text text-anchor="start" x="517.163" y="-545.3" font-family="Times New Roman,serif" font-size="14.00">created_at :datetime</text>
<text text-anchor="start" x="517.163" y="-530.3" font-family="Times New Roman,serif" font-size="14.00">updated_at :datetime</text>
</g>
<!-- User -->
<g id="node10" class="node"><title>User</title>
<path fill="none" stroke="black" d="M375.163,-348.5C375.163,-348.5 483.163,-348.5 483.163,-348.5 489.163,-348.5 495.163,-354.5 495.163,-360.5 495.163,-360.5 495.163,-472.5 495.163,-472.5 495.163,-478.5 489.163,-484.5 483.163,-484.5 483.163,-484.5 375.163,-484.5 375.163,-484.5 369.163,-484.5 363.163,-478.5 363.163,-472.5 363.163,-472.5 363.163,-360.5 363.163,-360.5 363.163,-354.5 369.163,-348.5 375.163,-348.5"/>
<text text-anchor="middle" x="429.163" y="-469.3" font-family="Times New Roman,serif" font-size="14.00">User</text>
<polyline fill="none" stroke="black" points="363.163,-461.5 495.163,-461.5 "/>
<text text-anchor="start" x="371.163" y="-446.3" font-family="Times New Roman,serif" font-size="14.00">id :INTEGER</text>
<text text-anchor="start" x="371.163" y="-431.3" font-family="Times New Roman,serif" font-size="14.00">first_name :varchar</text>
<text text-anchor="start" x="371.163" y="-416.3" font-family="Times New Roman,serif" font-size="14.00">last_name :varchar</text>
<text text-anchor="start" x="371.163" y="-401.3" font-family="Times New Roman,serif" font-size="14.00">login :varchar</text>
<text text-anchor="start" x="371.163" y="-386.3" font-family="Times New Roman,serif" font-size="14.00">password :varchar</text>
<text text-anchor="start" x="371.163" y="-371.3" font-family="Times New Roman,serif" font-size="14.00">created_at :datetime</text>
<text text-anchor="start" x="371.163" y="-356.3" font-family="Times New Roman,serif" font-size="14.00">updated_at :datetime</text>
</g>
<!-- Category&#45;&gt;User -->
<g id="edge1" class="edge"><title>Category&#45;&gt;User</title>
<path fill="none" stroke="#a7c193" d="M515.363,-514.623C508.754,-507.177 501.996,-499.563 495.316,-492.035"/>
<polygon fill="#a7c193" stroke="#a7c193" points="515.402,-514.667 518.675,-525.133 518.721,-518.407 522.04,-522.146 522.04,-522.146 522.04,-522.146 518.721,-518.407 525.406,-519.159 515.402,-514.667 515.402,-514.667"/>
<polygon fill="#a7c193" stroke="#a7c193" points="495.307,-492.026 492.035,-481.559 491.988,-488.286 488.669,-484.547 488.669,-484.547 488.669,-484.547 491.988,-488.286 485.303,-487.534 495.307,-492.026 495.307,-492.026"/>
</g>
<!-- Conference -->
<g id="node4" class="node"><title>Conference</title>
<path fill="none" stroke="black" d="M290.163,-530C290.163,-530 398.163,-530 398.163,-530 404.163,-530 410.163,-536 410.163,-542 410.163,-542 410.163,-624 410.163,-624 410.163,-630 404.163,-636 398.163,-636 398.163,-636 290.163,-636 290.163,-636 284.163,-636 278.163,-630 278.163,-624 278.163,-624 278.163,-542 278.163,-542 278.163,-536 284.163,-530 290.163,-530"/>
<text text-anchor="middle" x="344.163" y="-620.8" font-family="Times New Roman,serif" font-size="14.00">Conference</text>
<polyline fill="none" stroke="black" points="278.163,-613 410.163,-613 "/>
<text text-anchor="start" x="286.163" y="-597.8" font-family="Times New Roman,serif" font-size="14.00">id :INTEGER</text>
<text text-anchor="start" x="286.163" y="-582.8" font-family="Times New Roman,serif" font-size="14.00">title :varchar</text>
<text text-anchor="start" x="286.163" y="-567.8" font-family="Times New Roman,serif" font-size="14.00">description :text</text>
<text text-anchor="start" x="286.163" y="-552.8" font-family="Times New Roman,serif" font-size="14.00">created_at :datetime</text>
<text text-anchor="start" x="286.163" y="-537.8" font-family="Times New Roman,serif" font-size="14.00">updated_at :datetime</text>
</g>
<!-- Creator -->
<g id="node5" class="node"><title>Creator</title>
<path fill="none" stroke="black" d="M627.163,-189.5C627.163,-189.5 743.163,-189.5 743.163,-189.5 749.163,-189.5 755.163,-195.5 755.163,-201.5 755.163,-201.5 755.163,-283.5 755.163,-283.5 755.163,-289.5 749.163,-295.5 743.163,-295.5 743.163,-295.5 627.163,-295.5 627.163,-295.5 621.163,-295.5 615.163,-289.5 615.163,-283.5 615.163,-283.5 615.163,-201.5 615.163,-201.5 615.163,-195.5 621.163,-189.5 627.163,-189.5"/>
<text text-anchor="middle" x="685.163" y="-280.3" font-family="Times New Roman,serif" font-size="14.00">Creator</text>
<polyline fill="none" stroke="black" points="615.163,-272.5 755.163,-272.5 "/>
<text text-anchor="start" x="623.163" y="-257.3" font-family="Times New Roman,serif" font-size="14.00">id :INTEGER</text>
<text text-anchor="start" x="623.163" y="-242.3" font-family="Times New Roman,serif" font-size="14.00">created_at :datetime</text>
<text text-anchor="start" x="623.163" y="-227.3" font-family="Times New Roman,serif" font-size="14.00">updated_at :datetime</text>
<text text-anchor="start" x="623.163" y="-212.3" font-family="Times New Roman,serif" font-size="14.00">profile_id :integer</text>
<text text-anchor="start" x="623.163" y="-197.3" font-family="Times New Roman,serif" font-size="14.00">conference_id :integer</text>
</g>
<!-- Conference&#45;&gt;Creator -->
<g id="edge2" class="edge"><title>Conference&#45;&gt;Creator</title>
<path fill="none" stroke="#560e12" d="M417.551,-545.365C446.27,-529.093 478.424,-508.328 504.163,-485 563.796,-430.951 617.03,-354.819 650.076,-302.562"/>
<ellipse fill="none" stroke="#560e12" cx="413.821" cy="-547.451" rx="4.00002" ry="4.00002"/>
<ellipse fill="#560e12" stroke="#560e12" cx="652.276" cy="-299.059" rx="4.00002" ry="4.00002"/>
</g>
<!-- Topic -->
<g id="node9" class="node"><title>Topic</title>
<path fill="none" stroke="black" d="M116.163,-356C116.163,-356 232.163,-356 232.163,-356 238.163,-356 244.163,-362 244.163,-368 244.163,-368 244.163,-465 244.163,-465 244.163,-471 238.163,-477 232.163,-477 232.163,-477 116.163,-477 116.163,-477 110.163,-477 104.163,-471 104.163,-465 104.163,-465 104.163,-368 104.163,-368 104.163,-362 110.163,-356 116.163,-356"/>
<text text-anchor="middle" x="174.163" y="-461.8" font-family="Times New Roman,serif" font-size="14.00">Topic</text>
<polyline fill="none" stroke="black" points="104.163,-454 244.163,-454 "/>
<text text-anchor="start" x="112.163" y="-438.8" font-family="Times New Roman,serif" font-size="14.00">id :INTEGER</text>
<text text-anchor="start" x="112.163" y="-423.8" font-family="Times New Roman,serif" font-size="14.00">title :varchar</text>
<text text-anchor="start" x="112.163" y="-408.8" font-family="Times New Roman,serif" font-size="14.00">description :text</text>
<text text-anchor="start" x="112.163" y="-393.8" font-family="Times New Roman,serif" font-size="14.00">created_at :datetime</text>
<text text-anchor="start" x="112.163" y="-378.8" font-family="Times New Roman,serif" font-size="14.00">updated_at :datetime</text>
<text text-anchor="start" x="112.163" y="-363.8" font-family="Times New Roman,serif" font-size="14.00">conference_id :integer</text>
</g>
<!-- Conference&#45;&gt;Topic -->
<g id="edge3" class="edge"><title>Conference&#45;&gt;Topic</title>
<path fill="none" stroke="#10f893" d="M284.209,-523.986C270.997,-511.202 256.899,-497.559 243.355,-484.454"/>
<ellipse fill="none" stroke="#10f893" cx="287.499" cy="-527.17" rx="4.00002" ry="4.00002"/>
<polygon fill="#10f893" stroke="#10f893" points="243.084,-484.191 239.026,-474.003 239.49,-480.714 235.897,-477.237 235.897,-477.237 235.897,-477.237 239.49,-480.714 232.768,-480.471 243.084,-484.191 243.084,-484.191"/>
</g>
<!-- Email -->
<g id="node6" class="node"><title>Email</title>
<path fill="none" stroke="black" d="M344.163,-189.5C344.163,-189.5 452.163,-189.5 452.163,-189.5 458.163,-189.5 464.163,-195.5 464.163,-201.5 464.163,-201.5 464.163,-283.5 464.163,-283.5 464.163,-289.5 458.163,-295.5 452.163,-295.5 452.163,-295.5 344.163,-295.5 344.163,-295.5 338.163,-295.5 332.163,-289.5 332.163,-283.5 332.163,-283.5 332.163,-201.5 332.163,-201.5 332.163,-195.5 338.163,-189.5 344.163,-189.5"/>
<text text-anchor="middle" x="398.163" y="-280.3" font-family="Times New Roman,serif" font-size="14.00">Email</text>
<polyline fill="none" stroke="black" points="332.163,-272.5 464.163,-272.5 "/>
<text text-anchor="start" x="340.163" y="-257.3" font-family="Times New Roman,serif" font-size="14.00">id :INTEGER</text>
<text text-anchor="start" x="340.163" y="-242.3" font-family="Times New Roman,serif" font-size="14.00">email :varchar</text>
<text text-anchor="start" x="340.163" y="-227.3" font-family="Times New Roman,serif" font-size="14.00">created_at :datetime</text>
<text text-anchor="start" x="340.163" y="-212.3" font-family="Times New Roman,serif" font-size="14.00">updated_at :datetime</text>
<text text-anchor="start" x="340.163" y="-197.3" font-family="Times New Roman,serif" font-size="14.00">user_id :integer</text>
</g>
<!-- Reviewer -->
<g id="node7" class="node"><title>Reviewer</title>
<path fill="none" stroke="black" d="M194.163,-189.5C194.163,-189.5 302.163,-189.5 302.163,-189.5 308.163,-189.5 314.163,-195.5 314.163,-201.5 314.163,-201.5 314.163,-283.5 314.163,-283.5 314.163,-289.5 308.163,-295.5 302.163,-295.5 302.163,-295.5 194.163,-295.5 194.163,-295.5 188.163,-295.5 182.163,-289.5 182.163,-283.5 182.163,-283.5 182.163,-201.5 182.163,-201.5 182.163,-195.5 188.163,-189.5 194.163,-189.5"/>
<text text-anchor="middle" x="248.163" y="-280.3" font-family="Times New Roman,serif" font-size="14.00">Reviewer</text>
<polyline fill="none" stroke="black" points="182.163,-272.5 314.163,-272.5 "/>
<text text-anchor="start" x="190.163" y="-257.3" font-family="Times New Roman,serif" font-size="14.00">id :INTEGER</text>
<text text-anchor="start" x="190.163" y="-242.3" font-family="Times New Roman,serif" font-size="14.00">created_at :datetime</text>
<text text-anchor="start" x="190.163" y="-227.3" font-family="Times New Roman,serif" font-size="14.00">updated_at :datetime</text>
<text text-anchor="start" x="190.163" y="-212.3" font-family="Times New Roman,serif" font-size="14.00">profile_id :integer</text>
<text text-anchor="start" x="190.163" y="-197.3" font-family="Times New Roman,serif" font-size="14.00">topic_id :integer</text>
</g>
<!-- Reviewer&#45;&gt;Application -->
<g id="edge4" class="edge"><title>Reviewer&#45;&gt;Application</title>
<path fill="none" stroke="#7c001c" d="M248.163,-181.103C248.163,-169.991 248.163,-158.251 248.163,-146.724"/>
<ellipse fill="none" stroke="#7c001c" cx="248.163" cy="-185.428" rx="4" ry="4"/>
<polygon fill="#7c001c" stroke="#7c001c" points="248.163,-146.669 252.663,-136.669 248.163,-141.669 248.163,-136.669 248.163,-136.669 248.163,-136.669 248.163,-141.669 243.663,-136.669 248.163,-146.669 248.163,-146.669"/>
</g>
<!-- Talk -->
<g id="node8" class="node"><title>Talk</title>
<path fill="none" stroke="black" d="M44.1626,-174.5C44.1626,-174.5 152.163,-174.5 152.163,-174.5 158.163,-174.5 164.163,-180.5 164.163,-186.5 164.163,-186.5 164.163,-298.5 164.163,-298.5 164.163,-304.5 158.163,-310.5 152.163,-310.5 152.163,-310.5 44.1626,-310.5 44.1626,-310.5 38.1626,-310.5 32.1626,-304.5 32.1626,-298.5 32.1626,-298.5 32.1626,-186.5 32.1626,-186.5 32.1626,-180.5 38.1626,-174.5 44.1626,-174.5"/>
<text text-anchor="middle" x="98.1626" y="-295.3" font-family="Times New Roman,serif" font-size="14.00">Talk</text>
<polyline fill="none" stroke="black" points="32.1626,-287.5 164.163,-287.5 "/>
<text text-anchor="start" x="40.1626" y="-272.3" font-family="Times New Roman,serif" font-size="14.00">id :INTEGER</text>
<text text-anchor="start" x="40.1626" y="-257.3" font-family="Times New Roman,serif" font-size="14.00">title :varchar</text>
<text text-anchor="start" x="40.1626" y="-242.3" font-family="Times New Roman,serif" font-size="14.00">description :text</text>
<text text-anchor="start" x="40.1626" y="-227.3" font-family="Times New Roman,serif" font-size="14.00">created_at :datetime</text>
<text text-anchor="start" x="40.1626" y="-212.3" font-family="Times New Roman,serif" font-size="14.00">updated_at :datetime</text>
<text text-anchor="start" x="40.1626" y="-197.3" font-family="Times New Roman,serif" font-size="14.00">topic_id :integer</text>
<text text-anchor="start" x="40.1626" y="-182.3" font-family="Times New Roman,serif" font-size="14.00">author_id :integer</text>
</g>
<!-- Topic&#45;&gt;Application -->
<g id="edge7" class="edge"><title>Topic&#45;&gt;Application</title>
<path fill="none" stroke="#3899bc" d="M96.6584,-381.401C68.1903,-364.601 39.056,-341.327 23.1626,-311 -5.10095,-257.068 -9.59226,-225.328 23.1626,-174 55.7579,-122.922 120.478,-96.4244 172.171,-82.9166"/>
<ellipse fill="none" stroke="#3899bc" cx="100.402" cy="-383.545" rx="4.00002" ry="4.00002"/>
<polygon fill="#3899bc" stroke="#3899bc" points="172.289,-82.8871 183.081,-84.8295 177.14,-81.6754 181.991,-80.4637 181.991,-80.4637 181.991,-80.4637 177.14,-81.6754 180.9,-76.0978 172.289,-82.8871 172.289,-82.8871"/>
</g>
<!-- Topic&#45;&gt;Reviewer -->
<g id="edge6" class="edge"><title>Topic&#45;&gt;Reviewer</title>
<path fill="none" stroke="#21f01f" d="M203.035,-348.39C209.163,-334.149 215.602,-319.181 221.637,-305.154"/>
<ellipse fill="none" stroke="#21f01f" cx="201.417" cy="-352.151" rx="4.00002" ry="4.00002"/>
<polygon fill="#21f01f" stroke="#21f01f" points="221.789,-304.8 229.875,-297.393 223.765,-300.207 225.741,-295.614 225.741,-295.614 225.741,-295.614 223.765,-300.207 221.608,-293.836 221.789,-304.8 221.789,-304.8"/>
</g>
<!-- Topic&#45;&gt;Talk -->
<g id="edge5" class="edge"><title>Topic&#45;&gt;Talk</title>
<path fill="none" stroke="#13d6f2" d="M144.44,-348.232C140.356,-338.99 136.138,-329.444 131.987,-320.051"/>
<ellipse fill="none" stroke="#13d6f2" cx="146.178" cy="-352.167" rx="4.00002" ry="4.00002"/>
<polygon fill="#13d6f2" stroke="#13d6f2" points="131.908,-319.872 131.983,-308.906 129.888,-315.299 127.867,-310.725 127.867,-310.725 127.867,-310.725 129.888,-315.299 123.751,-312.544 131.908,-319.872 131.908,-319.872"/>
</g>
<!-- User&#45;&gt;Application -->
<g id="edge9" class="edge"><title>User&#45;&gt;Application</title>
<path fill="none" stroke="#f903c0" d="M468.684,-340.645C489.508,-290.033 504.836,-223.634 473.163,-174 440.567,-122.922 375.848,-96.4244 324.155,-82.9166"/>
<ellipse fill="none" stroke="#f903c0" cx="466.998" cy="-344.627" rx="4.00001" ry="4.00001"/>
<polygon fill="#f903c0" stroke="#f903c0" points="324.036,-82.8871 315.425,-76.0978 319.185,-81.6754 314.334,-80.4637 314.334,-80.4637 314.334,-80.4637 319.185,-81.6754 313.244,-84.8295 324.036,-82.8871 324.036,-82.8871"/>
<text text-anchor="middle" x="539.663" y="-238.8" font-family="Times New Roman,serif" font-size="14.00">sent_applications</text>
</g>
<!-- User&#45;&gt;Creator -->
<g id="edge11" class="edge"><title>User&#45;&gt;Creator</title>
<path fill="none" stroke="#0731e0" d="M501.896,-352.142C513.851,-343.574 526.49,-335.509 539.163,-329 564.686,-315.891 575.708,-324.243 601.163,-311 606.717,-308.11 612.255,-304.822 617.686,-301.289"/>
<ellipse fill="none" stroke="#0731e0" cx="498.556" cy="-354.585" rx="4.00002" ry="4.00002"/>
<polygon fill="#0731e0" stroke="#0731e0" points="617.848,-301.18 628.648,-299.281 621.983,-298.369 626.119,-295.559 626.119,-295.559 626.119,-295.559 621.983,-298.369 623.59,-291.837 617.848,-301.18 617.848,-301.18"/>
</g>
<!-- User&#45;&gt;Email -->
<g id="edge8" class="edge"><title>User&#45;&gt;Email</title>
<path fill="none" stroke="#871b8c" d="M415.517,-339.787C413.334,-327.674 411.101,-315.285 408.994,-303.599"/>
<ellipse fill="none" stroke="#871b8c" cx="416.29" cy="-344.078" rx="4.00001" ry="4.00001"/>
<ellipse fill="#871b8c" stroke="#871b8c" cx="408.268" cy="-299.57" rx="4.00001" ry="4.00001"/>
</g>
<!-- User&#45;&gt;Reviewer -->
<g id="edge12" class="edge"><title>User&#45;&gt;Reviewer</title>
<path fill="none" stroke="#913273" d="M357.002,-346.927C341.569,-332.262 325.394,-316.891 310.375,-302.618"/>
<ellipse fill="none" stroke="#913273" cx="360.15" cy="-349.919" rx="4.00002" ry="4.00002"/>
<polygon fill="#913273" stroke="#913273" points="310.351,-302.597 306.202,-292.446 306.727,-299.152 303.102,-295.708 303.102,-295.708 303.102,-295.708 306.727,-299.152 300.003,-298.97 310.351,-302.597 310.351,-302.597"/>
</g>
<!-- User&#45;&gt;Talk -->
<g id="edge10" class="edge"><title>User&#45;&gt;Talk</title>
<path fill="none" stroke="#f1fb4a" d="M355.554,-386.947C285.849,-359.666 189.471,-321.229 173.163,-311 172.977,-310.884 172.792,-310.767 172.606,-310.65"/>
<ellipse fill="none" stroke="#f1fb4a" cx="359.337" cy="-388.426" rx="4.00001" ry="4.00001"/>
<polygon fill="#f1fb4a" stroke="#f1fb4a" points="172.602,-310.647 166.798,-301.343 168.448,-307.865 164.294,-305.082 164.294,-305.082 164.294,-305.082 168.448,-307.865 161.789,-308.821 172.602,-310.647 172.602,-310.647"/>
</g>
</g>
</svg>
